<?xml version="1.0" standalone="no"?>
<!DOCTYPE svg PUBLIC "-//W3C//DTD SVG 20010904//EN"
 "http://www.w3.org/TR/2001/REC-SVG-20010904/DTD/svg10.dtd">
<svg version="1.0" xmlns="http://www.w3.org/2000/svg"
 width="512.000000pt" height="512.000000pt" viewBox="0 0 512.000000 512.000000"
 preserveAspectRatio="xMidYMid meet">
<metadata>
Created by potrace 1.11, written by Peter Selinger 2001-2013
</metadata>
<g transform="translate(0.000000,512.000000) scale(0.100000,-0.100000)"
fill="#000000" stroke="none">
<path d="M393 5106 c-186 -45 -345 -207 -382 -388 -8 -38 -11 -677 -9 -2183
l3 -2130 22 -60 c67 -175 220 -306 393 -335 46 -8 684 -10 2180 -8 l2115 3 68
27 c86 35 141 73 205 143 60 66 106 156 122 240 8 44 10 633 8 2180 l-3 2120
-23 59 c-64 169 -213 300 -380 335 -82 17 -4248 14 -4319 -3z m1615 -2539
c205 -596 372 -1089 372 -1095 0 -9 -35 -12 -137 -10 l-136 3 -95 293 -96 292
-442 0 -442 0 -46 -132 c-26 -73 -70 -205 -100 -293 l-53 -160 -136 -3 c-76
-1 -137 1 -137 5 0 4 167 497 372 1095 l373 1088 166 0 165 0 372 -1083z
m1577 1073 c202 -19 339 -56 485 -131 176 -91 297 -215 385 -394 119 -242 149
-602 75 -892 -89 -346 -348 -608 -694 -703 -171 -47 -221 -51 -673 -57 l-433
-5 0 1096 0 1096 373 0 c204 0 422 -5 482 -10z"/>
<path d="M1461 3368 c-23 -61 -341 -1045 -341 -1056 0 -9 81 -12 356 -12 281
0 355 3 351 13 -2 6 -82 250 -176 542 -95 291 -174 531 -176 533 -3 3 -9 -6
-14 -20z"/>
<path d="M3000 2555 l0 -845 248 0 c136 0 286 5 332 10 358 44 591 239 672
564 19 78 22 117 23 276 0 218 -18 309 -88 450 -56 116 -168 229 -282 287
-164 84 -282 103 -642 103 l-263 0 0 -845z"/>
</g>
</svg>
